<svg fill="none" height="51" viewBox="0 0 101 51" width="101" xmlns="http://www.w3.org/2000/svg" xmlns:xlink="http://www.w3.org/1999/xlink"><clipPath id="a"><path d="m.5.75h100v50h-100z"/></clipPath><g clip-path="url(#a)" fill="#ff534f"><path d="m78.0772 39.5523c-1.8314-2.6826-3.6668-5.3868-5.5076-8.1121-.5897-.8804-1.1799-1.7632-1.7705-2.6477-.0294.0079-.0592.014-.0892.0198.2419.9568.4842 1.9159.7259 2.8728.7201 2.9755 1.4408 5.9529 2.1608 8.9286-1.027.2158-2.059.4126-3.0938.5904-.0148.0037-.03.0056-.0474.0082-.5321.0838-1.0683.1619-1.6083.2343l-5.0409-20.8395c1.9613-.2426 3.9282-.5967 5.9065-1.0573 1.6415 2.4871 3.277 4.9603 4.912 7.4156.5882.8763 1.1769 1.7523 1.7642 2.6246l.0585-.0159c-.2419-.9571-.4836-1.9138-.7252-2.8706-.6655-2.7412-1.3277-5.4873-1.9909-8.2287 1.4103-.4255 2.8271-.9024 4.2502-1.4301.1098-.0344.2191-.0707.3283-.107 1.6863 6.974 3.3757 13.9517 5.062 20.9259-1.754.6332-3.5156 1.1969-5.2946 1.6887zm-17.5889 2.5026c-1.67-6.9133-3.4042-14.1926-5.076-21.1054 1.2371.0813 3.1058.1536 4.6196-.0146.3217-.0155.6424-.035.9643-.0572 1.6857 6.9629 3.3701 13.9217 5.0534 20.8854-1.8216.1686-3.6716.2665-5.5613.2918zm-17.5365-11.3037c-1.0946.0905-2.225.2152-3.3849.3794-1.8545-6.7823-3.7457-13.6917-5.6002-20.4743 1.8208-.238 3.6635-.4122 5.5326-.5219 1.4834 5.4313 2.9709 10.8616 4.4562 16.2924 1.2241-.1098 2.4532-.194 3.6827-.2512.392 1.4283.8182 2.9894 1.2075 4.4164-.928-.052-4.5356.0465-5.8939.1592zm-13.6023 2.4697c-1.8721-6.8472-3.7451-13.6898-5.6173-20.5372l.4081-.1105c.0131-.0015.0257-.0048.0377-.0104 1.6263-.4414 3.2674-.8373 4.9172-1.1841l.0163.0607 4.52 16.5267c1.199-.2512 2.4046-.4797 3.6154-.6802.3544 1.2971.7098 2.5987 1.0646 3.8978-2.8192.4507-5.8147 1.122-8.962 2.0372zm-6.3253 2.1147c-.5082-1.0442-1.0198-2.0851-1.5315-3.126-1.5184.5582-3.0205 1.1592-4.5091 1.8014.0794 1.2369.1603 2.478.2404 3.7171-1.4351.6413-2.8895 1.335-4.3647 2.0768-.3609-7.6799-.702-15.3113-1.0243-22.8983 1.9808-.8658 3.9885-1.6579 6.0227-2.3764 3.4605 6.2903 6.9359 12.628 10.4261 19.0114-1.7123.5231-3.4674 1.1188-5.2596 1.794zm62.7762-10.3978s3.9925-15.2974 5.4469-21.85439c-13.6173 7.74929-25.8992 11.85859-38.4781 11.08829-2.8562-.1749-2.9954-3.262-3.6045-5.74211-.8578-3.49124-4.6838-5.26634-6.9978-5.26634-12.3545 0-27.911 3.73815-41.6669 11.56775 2.98025 10.9795 6.30246 23.2189 9.29751 34.2524 13.52079-7.6943 24.57449-10.7955 34.20199-11.5906 6.5759-.5427 8.0101 1.6096 9.0077 5.4981.9785 3.8136 4.2039 5.8565 7.0954 5.8565 15.9004 0 26.5756-3.7099 40.3974-11.5771-3.711-3.2346-14.6996-12.2325-14.6996-12.2325z"/><path d="m16.1352 21.0248c-.047.0172-.0935.0366-.142.0566.1333 1.402.2647 2.8047.3965 4.2093.0981 1.4299.1963 2.8593.2931 4.2916.9787-.4094 1.9619-.8023 2.9504-1.176-.5993-1.2311-1.1984-2.4615-1.7955-3.6927-.5678-1.2304-1.1354-2.4606-1.7025-3.6888z"/></g></svg>